{
    "asset" : {
        "generator" : "Khronos glTF Blender I/O v1.7.33",
        "version" : "2.0"
    },
    "scene" : 0,
    "scenes" : [
        {
            "name" : "Scene",
            "nodes" : [
                1
            ]
        }
    ],
    "nodes" : [
        {
            "mesh" : 0,
            "name" : "node_id32.003",
            "translation" : [
                70.09507751464844,
                10.365015029907227,
                -0.7655026316642761
            ]
        },
        {
            "children" : [
                0
            ],
            "name" : "node_id32",
            "rotation" : [
                0.7049093842506409,
                0.04800312593579292,
                -0.05570422485470772,
                0.7054754495620728
            ],
            "scale" : [
                0.10389972478151321,
                0.10389969497919083,
                0.10389971733093262
            ],
            "translation" : [
                -7.362483024597168,
                0,
                0
            ]
        }
    ],
    "materials" : [
        {
            "doubleSided" : true,
            "name" : "Material.003",
            "pbrMetallicRoughness" : {
                "baseColorFactor" : [
                    0.05472487956285477,
                    0,
                    0.060451358556747437,
                    1
                ],
                "metallicFactor" : 0,
                "roughnessFactor" : 0.5
            }
        }
    ],
    "meshes" : [
        {
            "name" : "mesh_id36.003",
            "primitives" : [
                {
                    "attributes" : {
                        "POSITION" : 0,
                        "NORMAL" : 1,
                        "TEXCOORD_0" : 2
                    },
                    "indices" : 3,
                    "material" : 0
                }
            ]
        }
    ],
    "accessors" : [
        {
            "bufferView" : 0,
            "componentType" : 5126,
            "count" : 912,
            "max" : [
                2.069925308227539,
                3.92417049407959,
                2.764791488647461
            ],
            "min" : [
                -3.1220741271972656,
                -1.857830286026001,
                -1.3572101593017578
            ],
            "type" : "VEC3"
        },
        {
            "bufferView" : 1,
            "componentType" : 5126,
            "count" : 912,
            "type" : "VEC3"
        },
        {
            "bufferView" : 2,
            "componentType" : 5126,
            "count" : 912,
            "type" : "VEC2"
        },
        {
            "bufferView" : 3,
            "componentType" : 5123,
            "count" : 912,
            "type" : "SCALAR"
        }
    ],
    "bufferViews" : [
        {
            "buffer" : 0,
            "byteLength" : 10944,
            "byteOffset" : 0
        },
        {
            "buffer" : 0,
            "byteLength" : 10944,
            "byteOffset" : 10944
        },
        {
            "buffer" : 0,
            "byteLength" : 7296,
            "byteOffset" : 21888
        },
        {
            "buffer" : 0,
            "byteLength" : 1824,
            "byteOffset" : 29184
        }
    ],
    "buffers" : [
        {
            "byteLength" : 31008,
            "uri" : "data:application/octet-stream;base64,"
        }
    ]
}
