{
    "asset" : {
        "generator" : "Khronos glTF Blender I/O v1.7.33",
        "version" : "2.0"
    },
    "scene" : 0,
    "scenes" : [
        {
            "name" : "Scene",
            "nodes" : [
                1
            ]
        }
    ],
    "nodes" : [
        {
            "mesh" : 0,
            "name" : "node_id32.004",
            "translation" : [
                70.09507751464844,
                10.365015983581543,
                -0.7655026912689209
            ]
        },
        {
            "children" : [
                0
            ],
            "name" : "node_id32",
            "rotation" : [
                0.7049093842506409,
                0.04800312593579292,
                -0.05570422485470772,
                0.7054754495620728
            ],
            "scale" : [
                0.10389972478151321,
                0.10389969497919083,
                0.10389971733093262
            ],
            "translation" : [
                -7.362483024597168,
                0,
                0
            ]
        }
    ],
    "materials" : [
        {
            "doubleSided" : true,
            "name" : "Material.004",
            "pbrMetallicRoughness" : {
                "baseColorFactor" : [
                    0.8000000715255737,
                    0.1939573884010315,
                    0.005586543120443821,
                    1
                ],
                "metallicFactor" : 0,
                "roughnessFactor" : 0.5
            }
        }
    ],
    "meshes" : [
        {
            "name" : "mesh_id37.001",
            "primitives" : [
                {
                    "attributes" : {
                        "POSITION" : 0,
                        "NORMAL" : 1,
                        "TEXCOORD_0" : 2
                    },
                    "indices" : 3,
                    "material" : 0
                }
            ]
        }
    ],
    "accessors" : [
        {
            "bufferView" : 0,
            "componentType" : 5126,
            "count" : 46564,
            "max" : [
                10.843512535095215,
                6.821348190307617,
                22.482072830200195
            ],
            "min" : [
                -12.006487846374512,
                -10.078651428222656,
                -9.93983268737793
            ],
            "type" : "VEC3"
        },
        {
            "bufferView" : 1,
            "componentType" : 5126,
            "count" : 46564,
            "type" : "VEC3"
        },
        {
            "bufferView" : 2,
            "componentType" : 5126,
            "count" : 46564,
            "type" : "VEC2"
        },
        {
            "bufferView" : 3,
            "componentType" : 5123,
            "count" : 46620,
            "type" : "SCALAR"
        }
    ],
    "bufferViews" : [
        {
            "buffer" : 0,
            "byteLength" : 558768,
            "byteOffset" : 0
        },
        {
            "buffer" : 0,
            "byteLength" : 558768,
            "byteOffset" : 558768
        },
        {
            "buffer" : 0,
            "byteLength" : 372512,
            "byteOffset" : 1117536
        },
        {
            "buffer" : 0,
            "byteLength" : 93240,
            "byteOffset" : 1490048
        }
    ],
    "buffers" : [
        {
            "byteLength" : 1583288,
            "uri" : "data:application/octet-stream;base64,"
        }
    ]
}
