{
    "asset" : {
        "generator" : "Khronos glTF Blender I/O v1.7.33",
        "version" : "2.0"
    },
    "scene" : 0,
    "scenes" : [
        {
            "name" : "Scene",
            "nodes" : [
                0
            ]
        }
    ],
    "nodes" : [
        {
            "mesh" : 0,
            "name" : "node_id32",
            "rotation" : [
                0.7049093842506409,
                0.04800312593579292,
                -0.05570422485470772,
                0.7054754495620728
            ],
            "scale" : [
                0.10389972478151321,
                0.10389969497919083,
                0.10389971733093262
            ],
            "translation" : [
                -3.103142944382853e-06,
                0,
                0
            ]
        }
    ],
    "materials" : [
        {
            "doubleSided" : true,
            "name" : "Material.001",
            "pbrMetallicRoughness" : {
                "baseColorFactor" : [
                    0.14914868772029877,
                    0.0062260753475129604,
                    0.007570530287921429,
                    1
                ],
                "metallicFactor" : 0,
                "roughnessFactor" : 0.5
            }
        }
    ],
    "meshes" : [
        {
            "name" : "mesh_id33.001",
            "primitives" : [
                {
                    "attributes" : {
                        "POSITION" : 0,
                        "NORMAL" : 1,
                        "TEXCOORD_0" : 2
                    },
                    "indices" : 3,
                    "material" : 0
                }
            ]
        }
    ],
    "accessors" : [
        {
            "bufferView" : 0,
            "componentType" : 5126,
            "count" : 3642,
            "max" : [
                7.721943378448486,
                7.099334239959717,
                5.809147357940674
            ],
            "min" : [
                -10.548054695129395,
                -9.308666229248047,
                -4.812846660614014
            ],
            "type" : "VEC3"
        },
        {
            "bufferView" : 1,
            "componentType" : 5126,
            "count" : 3642,
            "type" : "VEC3"
        },
        {
            "bufferView" : 2,
            "componentType" : 5126,
            "count" : 3642,
            "type" : "VEC2"
        },
        {
            "bufferView" : 3,
            "componentType" : 5123,
            "count" : 3654,
            "type" : "SCALAR"
        }
    ],
    "bufferViews" : [
        {
            "buffer" : 0,
            "byteLength" : 43704,
            "byteOffset" : 0
        },
        {
            "buffer" : 0,
            "byteLength" : 43704,
            "byteOffset" : 43704
        },
        {
            "buffer" : 0,
            "byteLength" : 29136,
            "byteOffset" : 87408
        },
        {
            "buffer" : 0,
            "byteLength" : 7308,
            "byteOffset" : 116544
        }
    ],
    "buffers" : [
        {
            "byteLength" : 123852,
            "uri" : "data:application/octet-stream;base64,"
        }
    ]
}
