{
    "asset" : {
        "generator" : "Khronos glTF Blender I/O v1.7.33",
        "version" : "2.0"
    },
    "scene" : 0,
    "scenes" : [
        {
            "name" : "Scene",
            "nodes" : [
                0
            ]
        }
    ],
    "nodes" : [
        {
            "mesh" : 0,
            "name" : "node_id30",
            "rotation" : [
                -0.7071066498756409,
                0,
                0,
                0.70710688829422
            ],
            "scale" : [
                0.1274069845676422,
                0.12740693986415863,
                0.12740695476531982
            ]
        }
    ],
    "materials" : [
        {
            "doubleSided" : true,
            "name" : "Material.006",
            "pbrMetallicRoughness" : {
                "baseColorFactor" : [
                    0.709359347820282,
                    0.2698240280151367,
                    0.8000000715255737,
                    1
                ],
                "metallicFactor" : 0,
                "roughnessFactor" : 0.5
            }
        }
    ],
    "meshes" : [
        {
            "name" : "mesh_id31.000",
            "primitives" : [
                {
                    "attributes" : {
                        "POSITION" : 0,
                        "NORMAL" : 1,
                        "TEXCOORD_0" : 2
                    },
                    "indices" : 3,
                    "material" : 0
                }
            ]
        }
    ],
    "accessors" : [
        {
            "bufferView" : 0,
            "componentType" : 5126,
            "count" : 882,
            "max" : [
                1.7438850402832031,
                2.9315054416656494,
                1.126717448234558
            ],
            "min" : [
                -1.9761123657226562,
                -2.2604939937591553,
                -1.183280110359192
            ],
            "type" : "VEC3"
        },
        {
            "bufferView" : 1,
            "componentType" : 5126,
            "count" : 882,
            "type" : "VEC3"
        },
        {
            "bufferView" : 2,
            "componentType" : 5126,
            "count" : 882,
            "type" : "VEC2"
        },
        {
            "bufferView" : 3,
            "componentType" : 5123,
            "count" : 882,
            "type" : "SCALAR"
        }
    ],
    "bufferViews" : [
        {
            "buffer" : 0,
            "byteLength" : 10584,
            "byteOffset" : 0
        },
        {
            "buffer" : 0,
            "byteLength" : 10584,
            "byteOffset" : 10584
        },
        {
            "buffer" : 0,
            "byteLength" : 7056,
            "byteOffset" : 21168
        },
        {
            "buffer" : 0,
            "byteLength" : 1764,
            "byteOffset" : 28224
        }
    ],
    "buffers" : [
        {
            "byteLength" : 29988,
            "uri" : "data:application/octet-stream;base64,"
        }
    ]
}
