{
    "asset" : {
        "generator" : "Khronos glTF Blender I/O v1.7.33",
        "version" : "2.0"
    },
    "scene" : 0,
    "scenes" : [
        {
            "name" : "Scene",
            "nodes" : [
                1
            ]
        }
    ],
    "nodes" : [
        {
            "mesh" : 0,
            "name" : "node_id32.006",
            "translation" : [
                70.09507751464844,
                10.365015983581543,
                -0.7655026912689209
            ]
        },
        {
            "children" : [
                0
            ],
            "name" : "node_id32",
            "rotation" : [
                0.7049093842506409,
                0.04800312593579292,
                -0.05570422485470772,
                0.7054754495620728
            ],
            "scale" : [
                0.10389972478151321,
                0.10389969497919083,
                0.10389971733093262
            ],
            "translation" : [
                -7.362483024597168,
                0,
                0
            ]
        }
    ],
    "materials" : [
        {
            "doubleSided" : true,
            "name" : "Material.005",
            "pbrMetallicRoughness" : {
                "baseColorFactor" : [
                    0.8000000715255737,
                    0.2678432762622833,
                    0.5688029527664185,
                    1
                ],
                "metallicFactor" : 0,
                "roughnessFactor" : 0.5
            }
        }
    ],
    "meshes" : [
        {
            "name" : "mesh_id39.001",
            "primitives" : [
                {
                    "attributes" : {
                        "POSITION" : 0,
                        "NORMAL" : 1,
                        "TEXCOORD_0" : 2
                    },
                    "indices" : 3,
                    "material" : 0
                }
            ]
        }
    ],
    "accessors" : [
        {
            "bufferView" : 0,
            "componentType" : 5126,
            "count" : 33944,
            "max" : [
                8.519262313842773,
                4.035403251647949,
                5.648853302001953
            ],
            "min" : [
                -8.802738189697266,
                -5.568596839904785,
                -5.957149505615234
            ],
            "type" : "VEC3"
        },
        {
            "bufferView" : 1,
            "componentType" : 5126,
            "count" : 33944,
            "type" : "VEC3"
        },
        {
            "bufferView" : 2,
            "componentType" : 5126,
            "count" : 33944,
            "type" : "VEC2"
        },
        {
            "bufferView" : 3,
            "componentType" : 5123,
            "count" : 33993,
            "type" : "SCALAR"
        }
    ],
    "bufferViews" : [
        {
            "buffer" : 0,
            "byteLength" : 407328,
            "byteOffset" : 0
        },
        {
            "buffer" : 0,
            "byteLength" : 407328,
            "byteOffset" : 407328
        },
        {
            "buffer" : 0,
            "byteLength" : 271552,
            "byteOffset" : 814656
        },
        {
            "buffer" : 0,
            "byteLength" : 67986,
            "byteOffset" : 1086208
        }
    ],
    "buffers" : [
        {
            "byteLength" : 1154196,
            "uri" : "data:application/octet-stream;base64,"
        }
    ]
}
