{
    "asset" : {
        "generator" : "Khronos glTF Blender I/O v1.7.33",
        "version" : "2.0"
    },
    "scene" : 0,
    "scenes" : [
        {
            "name" : "Scene",
            "nodes" : [
                1
            ]
        }
    ],
    "nodes" : [
        {
            "mesh" : 0,
            "name" : "node_id32.001",
            "translation" : [
                33.253047943115234,
                -6.288705348968506,
                17.83990478515625
            ]
        },
        {
            "children" : [
                0
            ],
            "name" : "node_id32",
            "rotation" : [
                0.7049093842506409,
                0.04800312593579292,
                -0.05570422485470772,
                0.7054754495620728
            ],
            "scale" : [
                0.10389972478151321,
                0.10389969497919083,
                0.10389971733093262
            ],
            "translation" : [
                -3.3020222187042236,
                1.8911795616149902,
                1.14874267578125
            ]
        }
    ],
    "materials" : [
        {
            "doubleSided" : true,
            "name" : "Material.002",
            "pbrMetallicRoughness" : {
                "baseColorFactor" : [
                    0.8000000715255737,
                    0.08051007241010666,
                    0.27147242426872253,
                    1
                ],
                "metallicFactor" : 0,
                "roughnessFactor" : 0.5
            }
        }
    ],
    "meshes" : [
        {
            "name" : "mesh_id34.003",
            "primitives" : [
                {
                    "attributes" : {
                        "POSITION" : 0,
                        "NORMAL" : 1,
                        "TEXCOORD_0" : 2
                    },
                    "indices" : 3,
                    "material" : 0
                }
            ]
        }
    ],
    "accessors" : [
        {
            "bufferView" : 0,
            "componentType" : 5126,
            "count" : 2708,
            "max" : [
                8.61056137084961,
                7.342855453491211,
                6.652760982513428
            ],
            "min" : [
                -5.119438171386719,
                -8.045144081115723,
                -33.54323959350586
            ],
            "type" : "VEC3"
        },
        {
            "bufferView" : 1,
            "componentType" : 5126,
            "count" : 2708,
            "type" : "VEC3"
        },
        {
            "bufferView" : 2,
            "componentType" : 5126,
            "count" : 2708,
            "type" : "VEC2"
        },
        {
            "bufferView" : 3,
            "componentType" : 5123,
            "count" : 2721,
            "type" : "SCALAR"
        }
    ],
    "bufferViews" : [
        {
            "buffer" : 0,
            "byteLength" : 32496,
            "byteOffset" : 0
        },
        {
            "buffer" : 0,
            "byteLength" : 32496,
            "byteOffset" : 32496
        },
        {
            "buffer" : 0,
            "byteLength" : 21664,
            "byteOffset" : 64992
        },
        {
            "buffer" : 0,
            "byteLength" : 5442,
            "byteOffset" : 86656
        }
    ],
    "buffers" : [
        {
            "byteLength" : 92100,
            "uri" : "data:application/octet-stream;base64,"
        }
    ]
}
